<!-- icon666.com - MILLIONS vector ICONS FREE --><svg version="1.1" id="Capa_1" xmlns="http://www.w3.org/2000/svg" xmlns:xlink="http://www.w3.org/1999/xlink" x="0px" y="0px" viewBox="0 0 511.608 511.608" style="enable-background:new 0 0 511.608 511.608;" xml:space="preserve"><path style="" d="M287.779,203.844v39.969h-7.994H87.932h-7.993v-39.969c0-47.963,75.941-39.97,75.941-79.938V43.967 h55.957v79.938C211.837,163.874,287.779,155.881,287.779,203.844z" fill="#FC6E51"></path><g style="opacity:0.4;"><path style="" d="M79.939,203.844v39.969h7.993h7.994v-39.969c0-47.963,63.951-32.475,59.954-79.938 C155.88,163.874,79.939,155.881,79.939,203.844z" fill="#FFFFFF"></path></g><g style="opacity:0.2;"><path d="M287.872,203.844v39.969h-7.994h-7.993v-39.969c0-47.963-63.951-32.475-59.954-79.938 C211.931,163.874,287.872,155.881,287.872,203.844z" fill="#000000"></path></g><rect x="155.884" y="43.964" style="" width="55.957" height="47.963" fill="#656D78"></rect><polygon style="" points="431.668,387.702 430.63,403.691 320.792,403.691 319.754,387.702 " fill="#E6E9ED"></polygon><polygon style="" points="319.754,387.702 320.792,403.691 336.781,403.691 335.742,387.702 " fill="#FFFFFF"></polygon><g style="opacity:0.2;"><polygon points="432.183,387.702 431.146,403.691 415.158,403.691 416.196,387.702 " fill="#000000"></polygon></g><polygon style="" points="320.792,403.691 322.954,435.743 323.751,435.665 359.724,451.654 353.728,458.851 354.689,459.648 375.711,453.886 375.711,453.808 383.705,451.654 386.906,459.648 426.875,459.648 429.03,427.672 430.63,403.691 " fill="#FC6E51"></polygon><g style="opacity:0.2;"><polygon points="414.642,403.691 413.042,427.672 410.887,459.648 426.875,459.648 429.03,427.672 430.63,403.691 " fill="#000000"></polygon></g><g style="opacity:0.4;"><polygon style="" points="338.943,442.418 336.781,403.691 320.792,403.691 322.954,435.743 323.751,435.665 " fill="#FFFFFF"></polygon></g><g style="opacity:0.2;"><polygon points="410.887,459.648 408.725,491.622 424.712,491.622 426.875,459.648 " fill="#000000"></polygon></g><polygon style="" points="424.712,491.622 423.674,507.611 327.748,507.611 326.71,491.622 399.693,491.622 " fill="#E6E9ED"></polygon><polygon style="" points="326.71,491.622 327.748,507.611 343.736,507.611 342.698,491.622 " fill="#FFFFFF"></polygon><g style="opacity:0.2;"><polygon points="424.712,491.622 423.674,507.611 407.687,507.611 408.725,491.622 " fill="#000000"></polygon></g><polygon style="" points="386.906,459.648 399.693,491.622 326.71,491.622 353.728,458.851 354.689,459.648 375.711,453.886 375.711,453.808 383.705,451.654 " fill="#FFFFFF"></polygon><g style="opacity:0.2;"><polygon points="386.906,459.648 399.693,491.622 407.687,491.622 394.9,459.648 " fill="#000000"></polygon></g><g><polygon style="" points="359.724,451.654 353.728,458.851 326.71,491.622 322.954,435.743 323.751,435.665 " fill="#FFFFFF"></polygon><polygon style="" points="386.906,459.648 383.705,451.654 375.711,453.808 375.711,453.886 354.689,459.648 353.728,458.851 359.724,451.654 323.751,435.665 322.954,435.743 326.71,491.622 399.693,491.622 " fill="#FFFFFF"></polygon></g><g style="opacity:0.2;"><polygon points="362.94,457.384 354.689,459.648 353.728,458.851 334.103,482.661 334.703,491.622 361.722,458.851 " fill="#000000"></polygon></g><path style="" d="M287.779,435.665v55.957c0,8.869-7.111,15.988-15.987,15.988H95.926 c-8.876,0-15.987-7.119-15.987-15.988v-55.957h7.993h191.852H287.779z" fill="#FC6E51"></path><g style="opacity:0.4;"><path style="" d="M95.926,491.622v-55.957h-7.994h-7.993v55.957c0,8.869,7.111,15.988,15.987,15.988h15.988 C103.038,507.611,95.926,500.492,95.926,491.622z" fill="#FFFFFF"></path></g><g style="opacity:0.2;"><path d="M271.791,491.622v-55.957h7.993h7.994v55.957c0,8.869-7.111,15.988-15.987,15.988h-15.988 C264.679,507.611,271.791,500.492,271.791,491.622z" fill="#000000"></path></g><path style="" d="M287.779,243.813v191.852h-7.994H87.932h-7.993V243.813h7.993h191.852H287.779z M263.797,351.73 c0-19.906-35.816-35.972-79.938-35.972s-79.938,16.065-79.938,35.972c0,19.907,35.816,35.973,79.938,35.973 S263.797,371.637,263.797,351.73z M223.828,299.771v-19.665c-11.749-2.717-25.418-4.317-39.97-4.317s-28.221,1.515-39.97,4.317 v19.665c11.749-2.717,25.418-4.317,39.97-4.317S212.079,297.054,223.828,299.771z" fill="#656D78"></path><path style="fill: rgb(254, 199, 0);" d="M183.859,315.758c44.122,0,79.938,16.065,79.938,35.972s-35.816,35.973-79.938,35.973 s-79.938-16.065-79.938-35.973C103.92,331.824,139.737,315.758,183.859,315.758z" fill="#FFCE54"></path><g style="opacity:0.5;"><path style="" d="M119.908,351.73c0-18.688,31.569-33.989,71.945-35.792c-2.631-0.117-5.293-0.18-7.994-0.18 c-44.122,0-79.938,16.065-79.938,35.972s35.816,35.973,79.938,35.973c2.701,0,5.363-0.063,7.994-0.18 C151.477,385.72,119.908,370.419,119.908,351.73z" fill="#FFFFFF"></path></g><g style="opacity:0.2;"><path d="M247.81,351.73c0-18.688-31.569-33.989-71.945-35.792c2.631-0.117,5.293-0.18,7.994-0.18 c44.122,0,79.938,16.065,79.938,35.972s-35.816,35.973-79.938,35.973c-2.701,0-5.363-0.063-7.994-0.18 C216.241,385.72,247.81,370.419,247.81,351.73z" fill="#000000"></path></g><path style="" d="M223.828,280.106v19.665c-11.749-2.717-25.418-4.317-39.97-4.317s-28.221,1.601-39.97,4.317v-19.665 c11.749-2.803,25.418-4.317,39.97-4.317S212.079,277.389,223.828,280.106z" fill="#ED5565"></path><g style="opacity:0.3;"><path style="" d="M159.877,280.106c9.516-2.271,20.328-3.646,31.819-4.099c-2.592-0.109-5.184-0.219-7.838-0.219 c-14.552,0-28.221,1.515-39.97,4.317v19.665c4.989-1.156,10.383-2.054,15.988-2.764L159.877,280.106L159.877,280.106z" fill="#FFFFFF"></path></g><g style="opacity:0.2;"><path d="M207.684,280.106c-9.516-2.271-20.328-3.646-31.819-4.099c2.592-0.109,5.184-0.219,7.838-0.219 c14.552,0,28.221,1.515,39.97,4.317v19.665c-4.988-1.156-10.383-2.054-15.988-2.764L207.684,280.106L207.684,280.106z" fill="#000000"></path></g><polygon style="" points="215.834,27.979 215.834,43.967 211.837,43.967 155.88,43.967 151.883,43.967 151.883,19.985 151.883,3.997 215.834,3.997 " fill="#656D78"></polygon><g style="opacity:0.3;"><rect x="79.944" y="243.814" style="" width="15.987" height="191.85" fill="#FFFFFF"></rect></g><g style="opacity:0.2;"><rect x="271.794" y="243.814" width="15.987" height="191.85" fill="#000000"></rect></g><g style="opacity:0.3;"><polygon style="" points="163.874,91.93 155.88,91.93 155.88,131.899 163.874,123.906 " fill="#FFFFFF"></polygon></g><g style="opacity:0.2;"><polygon points="203.843,91.93 211.837,91.93 211.837,131.899 203.843,123.906 " fill="#000000"></polygon></g><g style="opacity:0.3;"><rect x="155.884" y="43.964" style="" width="7.994" height="47.963" fill="#FFFFFF"></rect></g><g style="opacity:0.3;"><rect x="151.884" y="3.997" style="" width="7.994" height="39.97" fill="#FFFFFF"></rect></g><g style="opacity:0.2;"><rect x="207.754" y="3.997" width="7.994" height="39.97" fill="#000000"></rect></g><g style="opacity:0.2;"><rect x="203.844" y="43.964" width="7.994" height="47.963" fill="#000000"></rect></g><g><path style="" d="M79.939,495.62c-2.21,0-3.997-1.788-3.997-3.998V203.844c0-2.209,1.787-3.997,3.997-3.997 c2.209,0,3.997,1.788,3.997,3.997v287.778C83.936,493.832,82.148,495.62,79.939,495.62z" fill="#3A3847"></path><path style="" d="M287.779,495.62c-2.209,0-3.997-1.788-3.997-3.998V203.844c0-2.209,1.788-3.997,3.997-3.997 s3.997,1.788,3.997,3.997v287.778C291.776,493.832,289.988,495.62,287.779,495.62z" fill="#3A3847"></path><path style="" d="M155.88,127.902c-2.209,0-3.997-1.788-3.997-3.997V43.967c0-2.21,1.788-3.997,3.997-3.997 s3.997,1.787,3.997,3.997v79.938C159.877,126.115,158.089,127.902,155.88,127.902z" fill="#3A3847"></path><path style="" d="M211.837,127.902c-2.209,0-3.997-1.788-3.997-3.997V43.967c0-2.21,1.788-3.997,3.997-3.997 s3.997,1.787,3.997,3.997v79.938C215.834,126.115,214.046,127.902,211.837,127.902z" fill="#3A3847"></path><path style="" d="M79.939,207.841c-2.21,0-3.997-1.788-3.997-3.997c0-27.608,22.771-38.338,42.857-47.807 c17.752-8.365,33.084-15.593,33.084-32.131c0-2.209,1.788-3.997,3.997-3.997s3.997,1.788,3.997,3.997 c0,21.608-19.149,30.637-37.675,39.364c-19.68,9.274-38.267,18.037-38.267,40.574C83.936,206.053,82.148,207.841,79.939,207.841z" fill="#3A3847"></path><path style="" d="M287.779,207.841c-2.209,0-3.997-1.788-3.997-3.997c0-22.537-18.587-31.3-38.267-40.574 c-18.525-8.728-37.675-17.756-37.675-39.364c0-2.209,1.788-3.997,3.997-3.997s3.997,1.788,3.997,3.997 c0,16.538,15.332,23.767,33.084,32.131c20.086,9.469,42.857,20.199,42.857,47.807C291.776,206.053,289.988,207.841,287.779,207.841 z" fill="#3A3847"></path><path style="" d="M215.834,7.994h-63.951c-2.209,0-3.997-1.788-3.997-3.997S149.674,0,151.883,0h63.951 c2.209,0,3.997,1.788,3.997,3.997S218.043,7.994,215.834,7.994z" fill="#3A3847"></path><path style="" d="M215.834,47.964h-63.951c-2.209,0-3.997-1.788-3.997-3.997c0-2.21,1.788-3.997,3.997-3.997h63.951 c2.209,0,3.997,1.787,3.997,3.997C219.831,46.176,218.043,47.964,215.834,47.964z" fill="#3A3847"></path><path style="" d="M151.883,47.964c-2.209,0-3.997-1.788-3.997-3.997V3.997c0-2.209,1.788-3.997,3.997-3.997 s3.997,1.788,3.997,3.997v39.97C155.88,46.176,154.092,47.964,151.883,47.964z" fill="#3A3847"></path><path style="" d="M215.834,47.964c-2.209,0-3.997-1.788-3.997-3.997V3.997c0-2.209,1.788-3.997,3.997-3.997 s3.997,1.788,3.997,3.997v39.97C219.831,46.176,218.043,47.964,215.834,47.964z" fill="#3A3847"></path><path style="" d="M203.843,95.927h-39.969c-2.21,0-3.997-1.788-3.997-3.997s1.787-3.997,3.997-3.997h39.969 c2.21,0,3.997,1.788,3.997,3.997S206.053,95.927,203.843,95.927z" fill="#3A3847"></path><path style="" d="M95.926,511.608c-11.022,0-19.984-8.962-19.984-19.985c0-2.209,1.787-3.996,3.997-3.996 c2.209,0,3.997,1.787,3.997,3.996c0,6.613,5.378,11.991,11.99,11.991c2.209,0,3.997,1.788,3.997,3.997 S98.135,511.608,95.926,511.608z" fill="#3A3847"></path><path style="" d="M271.791,511.608c-2.21,0-3.997-1.788-3.997-3.997s1.787-3.997,3.997-3.997 c6.612,0,11.99-5.378,11.99-11.991c0-2.209,1.788-3.996,3.997-3.996s3.997,1.787,3.997,3.996 C291.776,502.646,282.814,511.608,271.791,511.608z" fill="#3A3847"></path><path style="" d="M271.791,511.608H95.926c-2.209,0-3.997-1.788-3.997-3.997s1.788-3.997,3.997-3.997h175.865 c2.209,0,3.997,1.788,3.997,3.997S274,511.608,271.791,511.608z" fill="#3A3847"></path><path style="" d="M191.853,71.946c-1.187,0-2.365-0.527-3.154-1.542l0,0c0,0-2.037-2.455-4.84-2.455 s-4.848,2.467-4.863,2.49c-1.39,1.698-3.896,1.982-5.605,0.616c-1.717-1.366-2.021-3.837-0.679-5.562 c0.444-0.57,4.504-5.539,11.147-5.539s10.703,4.969,11.147,5.539c1.358,1.74,1.046,4.25-0.694,5.608 C193.577,71.668,192.711,71.946,191.853,71.946z" fill="#3A3847"></path><path style="" d="M279.784,247.81H87.932c-2.209,0-3.996-1.787-3.996-3.997s1.787-3.997,3.996-3.997h191.852 c2.21,0,3.997,1.788,3.997,3.997S281.994,247.81,279.784,247.81z" fill="#3A3847"></path><path style="" d="M279.784,439.663H87.932c-2.209,0-3.996-1.788-3.996-3.998c0-2.209,1.787-3.996,3.996-3.996h191.852 c2.21,0,3.997,1.787,3.997,3.996C283.782,437.875,281.994,439.663,279.784,439.663z" fill="#3A3847"></path><path style="" d="M183.859,391.7c-47.065,0-83.936-17.557-83.936-39.97c0-22.412,36.87-39.969,83.936-39.969 s83.936,17.557,83.936,39.969C267.794,374.143,230.924,391.7,183.859,391.7z M183.859,319.755 c-45.426,0-75.941,16.534-75.941,31.975s30.516,31.977,75.941,31.977S259.8,367.172,259.8,351.73 C259.8,336.289,229.284,319.755,183.859,319.755z" fill="#3A3847"></path><path style="" d="M223.828,284.103c-0.297,0-0.602-0.031-0.898-0.102c-24.153-5.59-55.285-5.449-78.111-0.008 c-2.171,0.523-4.31-0.82-4.817-2.959c-0.515-2.154,0.813-4.309,2.959-4.816c24.005-5.723,56.449-5.863,81.766-0.008 c2.154,0.5,3.497,2.646,2.998,4.793C227.294,282.854,225.647,284.103,223.828,284.103z" fill="#3A3847"></path><path style="" d="M223.828,303.767c-0.297,0-0.602-0.031-0.898-0.102c-23.856-5.519-54.286-5.519-78.143,0 c-2.101,0.508-4.294-0.851-4.794-2.989c-0.499-2.155,0.844-4.302,2.998-4.802c24.996-5.776,56.738-5.776,81.734,0 c2.154,0.5,3.497,2.646,2.998,4.802C227.294,302.518,225.647,303.767,223.828,303.767z" fill="#3A3847"></path><path style="" d="M143.889,303.767c-2.209,0-3.996-1.787-3.996-3.996v-19.665c0-2.209,1.787-3.997,3.996-3.997 c2.21,0,3.997,1.788,3.997,3.997v19.665C147.886,301.98,146.099,303.767,143.889,303.767z" fill="#3A3847"></path><path style="" d="M223.828,303.767c-2.21,0-3.997-1.787-3.997-3.996v-19.665c0-2.209,1.787-3.997,3.997-3.997 c2.209,0,3.996,1.788,3.996,3.997v19.665C227.825,301.98,226.037,303.767,223.828,303.767z" fill="#3A3847"></path><path style="" d="M223.828,351.73h-79.939c-2.209,0-3.996-1.787-3.996-3.996s1.787-3.997,3.996-3.997h79.939 c2.209,0,3.996,1.788,3.996,3.997S226.037,351.73,223.828,351.73z" fill="#3A3847"></path><path style="" d="M199.846,367.718h-31.975c-2.21,0-3.997-1.787-3.997-3.997c0-2.209,1.787-3.997,3.997-3.997h31.975 c2.21,0,3.997,1.788,3.997,3.997C203.843,365.931,202.056,367.718,199.846,367.718z" fill="#3A3847"></path><path style="" d="M247.81,415.681H119.908c-2.209,0-3.997-1.787-3.997-3.996c0-2.21,1.788-3.998,3.997-3.998H247.81 c2.209,0,3.997,1.788,3.997,3.998C251.807,413.894,250.019,415.681,247.81,415.681z" fill="#3A3847"></path><path style="" d="M327.748,511.608c-2.093,0-3.849-1.624-3.989-3.739l-7.994-119.908 c-0.141-2.201,1.53-4.099,3.731-4.246c2.163-0.172,4.099,1.529,4.247,3.73l7.994,119.908c0.141,2.201-1.53,4.099-3.732,4.247 C327.919,511.608,327.834,511.608,327.748,511.608z" fill="#3A3847"></path><path style="" d="M423.674,511.608c-0.086,0-0.171,0-0.257-0.008c-2.202-0.148-3.873-2.046-3.732-4.247l7.994-119.908 c0.148-2.201,2.006-3.895,4.247-3.73c2.201,0.147,3.872,2.045,3.731,4.246l-7.994,119.908 C427.523,509.984,425.767,511.608,423.674,511.608z" fill="#3A3847"></path><path style="" d="M423.674,511.608h-95.926c-2.21,0-3.997-1.788-3.997-3.997s1.787-3.997,3.997-3.997h95.926 c2.21,0,3.997,1.788,3.997,3.997S425.884,511.608,423.674,511.608z" fill="#3A3847"></path><path style="" d="M424.712,495.62H326.71c-2.21,0-3.997-1.788-3.997-3.998c0-2.209,1.787-3.996,3.997-3.996h98.002 c2.21,0,3.997,1.787,3.997,3.996C428.709,493.832,426.922,495.62,424.712,495.62z" fill="#3A3847"></path><path style="" d="M431.668,391.7H319.754c-2.209,0-3.997-1.788-3.997-3.997s1.788-3.996,3.997-3.996h111.914 c2.209,0,3.997,1.787,3.997,3.996S433.877,391.7,431.668,391.7z" fill="#3A3847"></path><path style="" d="M359.724,455.651c-0.547,0-1.094-0.109-1.624-0.344l-35.973-15.987 c-2.014-0.898-2.927-3.264-2.029-5.277c0.897-2.021,3.263-2.912,5.276-2.029l35.973,15.987c2.015,0.897,2.928,3.263,2.03,5.277 C362.713,454.769,361.253,455.651,359.724,455.651z" fill="#3A3847"></path><path style="" d="M326.71,495.62c-0.898,0-1.796-0.297-2.545-0.914c-1.702-1.405-1.944-3.927-0.539-5.629 l33.029-39.984c1.421-1.701,3.935-1.904,5.629-0.516c1.693,1.421,1.92,3.935,0.507,5.637l-32.998,39.953 C329.005,495.12,327.858,495.62,326.71,495.62z" fill="#3A3847"></path><path style="" d="M375.711,457.805c-1.765,0-3.38-1.171-3.856-2.95c-0.578-2.132,0.688-4.325,2.818-4.903l7.994-2.154 c2.107-0.577,4.332,0.687,4.895,2.811c0.577,2.139-0.688,4.325-2.818,4.902l-7.994,2.162 C376.406,457.766,376.055,457.805,375.711,457.805z" fill="#3A3847"></path><path style="" d="M354.689,463.644c-1.757,0-3.373-1.17-3.857-2.942c-0.585-2.132,0.672-4.325,2.803-4.91 l21.023-5.762c2.146-0.562,4.332,0.688,4.91,2.811c0.586,2.124-0.672,4.325-2.803,4.902l-21.022,5.762 C355.391,463.598,355.032,463.644,354.689,463.644z" fill="#3A3847"></path><path style="" d="M399.693,495.62c-1.584,0-3.084-0.953-3.708-2.514l-15.987-39.97 c-0.82-2.046,0.172-4.372,2.225-5.199c2.045-0.827,4.371,0.188,5.191,2.232l15.987,39.97c0.819,2.045-0.172,4.371-2.225,5.199 C400.692,495.527,400.185,495.62,399.693,495.62z" fill="#3A3847"></path><path style="" d="M426.875,463.644h-39.97c-2.209,0-3.997-1.787-3.997-3.996s1.788-3.997,3.997-3.997h39.97 c2.209,0,3.997,1.788,3.997,3.997S429.084,463.644,426.875,463.644z" fill="#3A3847"></path><path style="" d="M430.63,407.687H320.792c-2.209,0-3.997-1.787-3.997-3.996s1.788-3.997,3.997-3.997H430.63 c2.209,0,3.997,1.788,3.997,3.997S432.839,407.687,430.63,407.687z" fill="#3A3847"></path><path style="" d="M159.877,23.982h-7.994c-2.209,0-3.997-1.787-3.997-3.997s1.788-3.997,3.997-3.997h7.994 c2.209,0,3.997,1.787,3.997,3.997S162.086,23.982,159.877,23.982z" fill="#3A3847"></path><path style="" d="M215.834,31.976h-7.994c-2.209,0-3.997-1.788-3.997-3.997s1.788-3.997,3.997-3.997h7.994 c2.209,0,3.997,1.788,3.997,3.997S218.043,31.976,215.834,31.976z" fill="#3A3847"></path></g></svg>